# xmcd
#
# Track frame offsets:
#	150
#	17439
#	34726
#	52397
#	67179
#	81612
#	100441
#	118813
#	131475
#	146567
#	161524
#	178097
#	201670
#
# Disc length: 2863 seconds
#
# Revision: 0
# Processed by: cddbd v1.5.2PL0 Copyright (c) Steve Scherf et al.
# Submitted via: EasyCDDAExtractor 16.0.6.1
#
DISCID=cc0b2d0d
DTITLE=Christal Thibault and Daniel Leblanc - Twin Fiddle
DYEAR=1900
DGENRE=roots bluegrass acadian country
TTITLE0=Salt Creek - Bill Cheatum
TTITLE1=San Antonio Rose
TTITLE2=Sainte Anne Reel - Fisher's Hornpipe - Ragtime Annie
TTITLE3=Tennessee Waltz
TTITLE4=Down Yonder
TTITLE5=Bee's Wax - Miss Sheppard's Reel - Dinky's Reel
TTITLE6=Bonaparte's Retreat
TTITLE7=Shenandoah Breakdown
TTITLE8=Red Wing
TTITLE9=Sherbrooke Reel - Bowin' The Strings
TTITLE10=Lover's Waltz
TTITLE11=Johnny Cope - Strathspey - Reel - Julia Delaney - McNabb's Hornpipe
TTITLE12=Lee Highway Blues
EXTD=
EXTT0=
EXTT1=
EXTT2=
EXTT3=
EXTT4=
EXTT5=
EXTT6=
EXTT7=
EXTT8=
EXTT9=
EXTT10=
EXTT11=
EXTT12=
PLAYORDER=
